<svg xmlns="http://www.w3.org/2000/svg" width="22" height="20" viewBox="0 0 22 20"><path d="M20.925 3.641H3.863L3.61.816A.896.896 0 0 0 2.717 0H.897a.896.896 0 1 0 0 1.792h1l1.031 11.483c.073.828.52 1.726 1.291 2.336C2.83 17.385 4.099 20 6.359 20c1.875 0 3.197-1.87 2.554-3.642h4.905C13.196 18.13 14.518 20 16.393 20c2.255 0 3.526-2.608 2.155-4.394.452-.135.85-.395 1.131-.792.428-.604.566-1.359.38-2.07l-1.247-7.785a.896.896 0 0 0-.887-.762zM6.359 18.208a1.25 1.25 0 1 1 .002-2.5 1.25 1.25 0 0 1-.002 2.5zm10.034 0a1.25 1.25 0 1 1 .002-2.5 1.25 1.25 0 0 1-.002 2.5zm2.32-6.255c.058.22.013.452-.124.635-.108.154-.291.247-.499.247H4.45L3.69 5.433h16.456l-1.443 6.52z" fill="#69707D"/></svg>
